<svg xmlns="http://www.w3.org/2000/svg" width="9" height="6" viewBox="0 0 9 6" fill="none">
  <path fill-rule="evenodd" clip-rule="evenodd" d="M0.74887 1.00632C0.863477 0.896061 1.01717 0.835808 1.17618 0.838808C1.33519 0.841809 1.4865 0.907816 1.59687 1.02232L4.56487 4.17272L7.53287 1.02232C7.58682 0.962849 7.65216 0.914807 7.72501 0.881047C7.79787 0.847286 7.87676 0.828493 7.95702 0.825782C8.03727 0.82307 8.11725 0.836495 8.19222 0.865261C8.26719 0.894027 8.33562 0.937549 8.39346 0.993247C8.4513 1.04895 8.49738 1.11569 8.52895 1.18952C8.56052 1.26335 8.57696 1.34277 8.57727 1.42307C8.57759 1.50336 8.56179 1.58291 8.5308 1.65699C8.49981 1.73107 8.45427 1.79817 8.39687 1.85433L4.99687 5.45433C4.9409 5.51239 4.8738 5.55858 4.79957 5.59013C4.72535 5.62168 4.64552 5.63794 4.56487 5.63794C4.48422 5.63794 4.40439 5.62168 4.33017 5.59013C4.25594 5.55858 4.18884 5.51239 4.13287 5.45433L0.73287 1.85433C0.622606 1.73972 0.562353 1.58602 0.565353 1.42701C0.568354 1.268 0.634361 1.11669 0.74887 1.00632Z" fill="white" fill-opacity="0.5"/>
</svg>