<svg xmlns="http://www.w3.org/2000/svg" width="22" height="20" viewBox="0 0 22 20" fill="none">
  <path d="M3.42283 7.50834V13.5975C3.42283 13.7556 3.61989 13.8347 3.7351 13.7234L4.83865 12.6578C4.872 12.6227 4.89322 12.5788 4.89322 12.5319V10.8925C4.89322 10.7345 5.09028 10.6554 5.20549 10.7667L7.20642 12.6637C7.27918 12.7339 7.27918 12.8481 7.20642 12.9154L0.0545901 19.6955C-0.0606149 19.8097 0.0182098 20 0.181923 20H1.75842C1.80389 20 1.8524 19.9824 1.88575 19.9502L9.30437 12.9154C9.37713 12.8481 9.37713 12.7339 9.30437 12.6637L3.7351 7.37953C3.61989 7.26829 3.42283 7.35026 3.42283 7.50834ZM10.5322 14.0718L4.59914 19.6955C4.48394 19.8097 4.56276 20 4.72647 20H6.30297C6.35148 20 6.39998 19.9824 6.43333 19.9502L10.5322 16.0625C10.605 15.9952 10.7172 15.9952 10.7899 16.0625L14.8888 19.9502C14.9252 19.9824 14.9707 20 15.0192 20H16.5987C16.7624 20 16.8443 19.8097 16.726 19.6955L10.7899 14.0718C10.7172 14.0015 10.605 14.0015 10.5322 14.0718ZM14.1187 12.6607L16.1197 10.7667C16.2349 10.6554 16.4319 10.7345 16.4319 10.8925V12.5319C16.4319 12.5788 16.4501 12.6227 16.4865 12.6578L17.587 13.7234C17.7022 13.8347 17.9023 13.7556 17.9023 13.5975V7.50834C17.9023 7.35026 17.7053 7.26829 17.5901 7.37953L12.0178 12.6607C11.945 12.731 11.945 12.8452 12.0178 12.9154L19.4424 19.9502C19.4758 19.9824 19.5213 20 19.5698 20H21.1402C21.307 20 21.3888 19.8097 21.2706 19.6955L14.1187 12.9154C14.046 12.8452 14.046 12.731 14.1187 12.6607ZM2.02218 3.43618L10.5322 11.5073C10.605 11.5746 10.7172 11.5746 10.7899 11.5073L19.303 3.43618C19.4182 3.32494 19.6153 3.40691 19.6153 3.56206V15.6087C19.6153 15.6556 19.6334 15.7024 19.6668 15.7346L20.7703 16.8032C20.8855 16.9115 21.0826 16.8324 21.0826 16.6773V0.17787C21.0826 0.0197855 20.8886 -0.0592573 20.7734 0.0519875L10.7899 9.51661C10.7172 9.58394 10.605 9.58394 10.5322 9.51661L0.551793 0.0519875C0.436587 -0.0592573 0.239525 0.0197855 0.239525 0.17787V16.6773C0.239525 16.8324 0.439619 16.9115 0.554824 16.8032L1.65534 15.7346C1.69172 15.7024 1.70991 15.6556 1.70991 15.6087V3.56206C1.70991 3.40691 1.90697 3.32494 2.02218 3.43618Z" fill="url(#paint0_linear_1277_2117)"/>
  <defs>
    <linearGradient id="paint0_linear_1277_2117" x1="0" y1="0" x2="21.6014" y2="0.301531" gradientUnits="userSpaceOnUse">
      <stop offset="0.0881" stop-color="#FFD770"/>
      <stop offset="0.2916" stop-color="#FF70AC"/>
      <stop offset="0.4951" stop-color="#EB70FF"/>
      <stop offset="0.6986" stop-color="#9E70FF"/>
      <stop offset="0.902" stop-color="#70B8FF"/>
    </linearGradient>
  </defs>
</svg>